# xmcd
#
# Track frame offsets:
#	150
#	9986
#	21634
#	35355
#	50870
#	63233
#	76201
#	87453
#	103458
#	114044
#
# Disc length: 1718 seconds
#
# Revision: 0
# Processed by: cddbd v1.5.2PL0 Copyright (c) Steve Scherf et al.
# Submitted via: audiograbber 1.83.01
#
DISCID=7d06b40a
DTITLE=Various Artist - The Greatest Country Music Collection Ever [CD3]
DYEAR=2005
DGENRE=Country
TTITLE0=Merle Haggard - Mama Tried
TTITLE1=George Jones - She Thinks I Still Care
TTITLE2=Willie Nelson and Leon Russell - Heartbreak Hotel
TTITLE3=Conway Twitty - Touch the Hand
TTITLE4=Hank Williams - Your Cheatin' Heart
TTITLE5=Freddy Fender - Wasted Days and Wasted Nights (live)
TTITLE6=Ray Price - Crazy Arms
TTITLE7=Bill Anderson - Mama Sang a Song
TTITLE8=Willie Nelson - Blue Eyes Cryin' In the Rain
TTITLE9=Waylon Jennings and Johnny Cash - There Ain't No Good Chain Gang
EXTD=
EXTT0=
EXTT1=
EXTT2=
EXTT3=
EXTT4=
EXTT5=
EXTT6=
EXTT7=
EXTT8=
EXTT9=
PLAYORDER=
